<svg width="383" height="270" viewBox="0 0 383 270" fill="none" xmlns="http://www.w3.org/2000/svg">
<path d="M0 22.5C0 10.0758 12.2509 0 27.3571 0H355.643C370.775 0 383 10.0758 383 22.5C383 34.9453 370.775 45 355.643 45H27.3571C12.2509 45 0 34.9453 0 22.5ZM0 135C0 122.555 12.2509 112.5 27.3571 112.5H355.643C370.775 112.5 383 122.555 383 135C383 147.445 370.775 157.5 355.643 157.5H27.3571C12.2509 157.5 0 147.445 0 135ZM355.643 270H27.3571C12.2509 270 0 259.945 0 247.5C0 235.055 12.2509 225 27.3571 225H355.643C370.775 225 383 235.055 383 247.5C383 259.945 370.775 270 355.643 270Z" fill="#BDBCBC"/>
</svg>
